<?xml version="1.0" standalone="no"?>
<!DOCTYPE svg PUBLIC "-//W3C//DTD SVG 20010904//EN"
 "http://www.w3.org/TR/2001/REC-SVG-20010904/DTD/svg10.dtd">
<svg version="1.0" xmlns="http://www.w3.org/2000/svg"
 width="640.000000pt" height="640.000000pt" viewBox="0 0 640.000000 640.000000"
 preserveAspectRatio="xMidYMid meet">
<metadata>
Created by potrace 1.11, written by Peter Selinger 2001-2013
</metadata>
<g transform="translate(0.000000,640.000000) scale(0.100000,-0.100000)"
fill="#000000" stroke="none">
<path d="M4445 5568 c16 -40 112 -84 250 -114 285 -60 651 -207 855 -342 284
-188 358 -403 212 -614 -47 -68 -218 -235 -225 -220 -2 4 -5 25 -6 46 -10 148
-118 312 -273 418 -140 94 -400 195 -603 232 -17 3 -57 11 -90 17 -33 6 -70
13 -81 15 -44 8 -149 22 -152 19 -1 -1 10 -14 24 -28 51 -51 143 -105 394
-232 345 -175 433 -304 322 -469 -57 -85 -180 -183 -297 -237 -28 -12 -52 -23
-55 -25 -3 -1 -5 39 -5 89 0 112 -23 166 -100 242 -90 88 -214 140 -355 149
-109 6 -113 -3 -29 -61 197 -136 248 -227 191 -340 -54 -105 -254 -210 -513
-269 -93 -21 -160 -32 -359 -60 -95 -13 -623 -12 -740 1 -148 18 -188 23 -225
30 -16 3 -67 12 -112 21 -256 46 -446 141 -489 243 -21 48 -13 120 16 161 46
64 95 90 332 174 70 25 166 81 156 92 -3 2 -60 -5 -128 -16 -517 -85 -737
-252 -621 -474 l29 -56 -27 6 c-72 17 -198 66 -265 104 -326 186 -283 360 138
564 61 29 128 61 149 71 264 117 307 138 307 146 0 26 -265 19 -413 -10 -102
-21 -218 -52 -262 -70 -11 -5 -36 -15 -55 -22 -121 -44 -268 -135 -346 -215
-87 -89 -124 -170 -125 -278 l-1 -54 -47 25 c-125 70 -200 139 -247 230 -112
213 47 422 460 606 173 77 523 185 681 210 17 3 82 14 145 26 63 11 135 23
160 26 25 3 54 8 65 10 11 2 23 4 26 4 4 1 6 16 6 35 l-1 35 -66 -5 c-143 -9
-265 -20 -330 -29 -14 -2 -61 -9 -105 -15 -351 -47 -772 -158 -1045 -275 -118
-50 -252 -119 -319 -162 -80 -52 -181 -159 -216 -229 -26 -51 -30 -69 -29
-139 0 -102 29 -162 123 -256 138 -138 342 -240 649 -324 l104 -29 39 -58
c146 -215 425 -377 934 -543 506 -165 885 -256 1425 -340 47 -7 185 -24 245
-30 33 -3 74 -8 90 -10 204 -27 820 -27 1050 0 22 3 60 7 85 10 25 3 79 10
120 15 41 5 100 12 130 15 30 3 66 8 80 10 14 2 45 6 70 10 314 44 515 121
679 260 54 46 165 234 148 252 -3 2 -33 -9 -68 -25 -216 -99 -603 -216 -849
-258 -14 -3 -47 -9 -75 -14 -53 -10 -247 -36 -330 -44 -289 -28 -814 -29
-1080 -1 -164 17 -329 37 -375 45 -30 5 -98 17 -150 25 -141 23 -140 23 -340
65 -360 78 -820 216 -1090 327 -109 45 -372 183 -349 183 3 0 63 -13 135 -30
219 -50 540 -101 789 -125 33 -4 70 -8 82 -10 13 -2 73 -7 135 -10 62 -4 115
-9 118 -10 3 -2 104 -7 225 -11 429 -15 1041 -6 1365 21 139 11 430 46 510 60
14 3 43 8 65 11 22 3 42 7 45 9 3 2 26 6 50 10 306 44 873 218 1135 347 114
56 125 62 210 124 215 158 302 345 246 532 -95 316 -731 635 -1541 771 -133
23 -172 28 -255 36 -33 3 -79 8 -103 11 -35 5 -41 4 -37 -8z"/>
<path d="M3019 4246 c-2 -2 -38 -7 -79 -11 -41 -3 -89 -8 -107 -10 -18 -3 -49
-7 -69 -10 -109 -16 -309 -67 -327 -85 -14 -13 22 -72 71 -118 53 -49 163 -95
287 -120 119 -24 572 -22 702 2 10 2 41 7 68 10 28 4 64 9 80 12 17 3 44 7 60
10 60 9 161 46 186 68 59 52 61 98 6 140 -43 33 -104 56 -191 72 -16 2 -32 7
-36 9 -3 2 -46 7 -96 10 -49 4 -100 9 -114 11 -31 7 -435 15 -441 10z"/>
<path d="M6109 4142 c-49 -38 -229 -142 -348 -202 -283 -141 -590 -244 -946
-315 -93 -19 -192 -37 -220 -41 -27 -3 -52 -7 -55 -9 -3 -2 -34 -6 -70 -10
-36 -4 -72 -8 -80 -10 -42 -8 -175 -21 -290 -30 -47 -3 -101 -8 -120 -10 -19
-3 -84 -7 -145 -11 -60 -3 -130 -8 -155 -10 -121 -9 -493 -11 -550 -4 -36 5
-96 12 -134 15 -38 4 -79 9 -90 11 -84 16 -358 22 -444 10 -54 -7 -174 -38
-169 -43 7 -7 157 -27 352 -48 28 -3 66 -7 85 -10 55 -7 232 -24 310 -30 133
-9 227 -17 255 -20 195 -22 926 -22 1108 0 15 2 62 6 105 10 76 6 123 11 192
20 19 3 55 7 78 10 187 22 540 97 707 151 359 117 570 291 650 537 8 26 15 50
15 52 0 10 -18 4 -41 -13z"/>
<path d="M1322 3464 c49 -70 202 -221 296 -293 354 -269 852 -450 1484 -541
194 -28 194 -28 273 -35 39 -3 84 -8 100 -10 17 -2 71 -6 120 -10 50 -3 117
-8 150 -11 274 -20 1111 -24 1280 -5 297 33 475 114 574 260 38 55 71 142 71
186 0 19 -8 17 -103 -30 -187 -92 -505 -186 -712 -210 -27 -4 -57 -8 -65 -10
-8 -2 -51 -7 -95 -10 -44 -4 -91 -8 -105 -11 -33 -5 -482 -6 -540 0 -25 2 -81
7 -125 10 -44 4 -96 9 -115 11 -19 3 -57 7 -85 10 -291 32 -821 145 -1170 250
-340 102 -410 129 -749 294 -249 121 -368 169 -489 196 l-29 6 34 -47z"/>
<path d="M2330 2609 c0 -11 121 -112 188 -158 224 -151 546 -270 897 -328 203
-34 559 -39 725 -10 231 40 396 104 535 207 l70 52 -180 -7 c-99 -3 -265 -12
-370 -19 -216 -15 -554 -13 -665 3 -171 25 -221 37 -512 126 -352 108 -459
132 -625 139 -35 1 -63 -1 -63 -5z"/>
<path d="M2465 2268 c20 -98 99 -191 251 -294 119 -81 253 -151 329 -171 6 -2
44 -12 85 -23 326 -90 738 -62 992 65 57 29 166 104 187 129 12 14 10 16 -10
16 -87 -1 -713 11 -749 15 -25 2 -72 7 -105 10 -139 13 -191 21 -345 52 -184
37 -427 122 -568 199 -34 19 -65 34 -68 34 -3 0 -3 -15 1 -32z"/>
<path d="M2499 1886 c-9 -7 -4 -61 8 -99 21 -66 96 -145 212 -221 163 -109
294 -153 481 -162 195 -10 360 30 500 122 60 39 145 112 138 119 -6 6 -177 15
-378 20 -266 7 -352 14 -490 41 -113 23 -271 78 -376 133 -52 26 -95 48 -95
47z"/>
<path d="M2410 1360 c66 -168 235 -360 441 -500 l56 -39 17 60 c24 86 47 118
195 266 72 73 131 136 131 142 0 5 -62 9 -152 8 -143 -1 -251 6 -323 19 -81
14 -180 37 -277 62 l-106 28 18 -46z"/>
</g>
</svg>
